HIERARCHY
ROOT Hips
{
	OFFSET 0.000000 0.000000 0.000000
	CHANNELS 6 Xposition Yposition Zposition Zrotation Yrotation Xrotation 
	JOINT LowerBack
	{
		OFFSET 0.000000 0.000000 0.000000
		CHANNELS 3 Zrotation Yrotation Xrotation
		JOINT Spine
		{
			OFFSET 0.028270 2.035590 -0.193380
			CHANNELS 3 Zrotation Yrotation Xrotation
			JOINT Spine1
			{
				OFFSET 0.056720 2.048850 -0.042750
				CHANNELS 3 Zrotation Yrotation Xrotation
				JOINT Neck
				{
					OFFSET 0.000000 0.000000 0.000000
					CHANNELS 3 Zrotation Yrotation Xrotation
					JOINT Neck1
					{
						OFFSET -0.054170 1.746240 0.172020
						CHANNELS 3 Zrotation Yrotation Xrotation
						JOINT Head
						{
							OFFSET 0.104070 1.761360 -0.123970
							CHANNELS 3 Zrotation Yrotation Xrotation
							End Site
							{
								OFFSET 0.000000 0.000000 0.000000
							}
						}
					}
				}
				JOINT LeftShoulder
				{
					OFFSET 0.000000 0.000000 0.000000
					CHANNELS 3 Zrotation Yrotation Xrotation
					JOINT LeftArm
					{
						OFFSET 3.362410 1.200890 -0.311210
						CHANNELS 3 Zrotation Yrotation Xrotation
						JOINT LeftForeArm
						{
							OFFSET 4.983000 -0.000000 -0.000000
							CHANNELS 3 Zrotation Yrotation Xrotation
							JOINT LeftHand
							{
								OFFSET 3.483560 -0.000000 -0.000000
								CHANNELS 3 Zrotation Yrotation Xrotation
								JOINT LeftFingerBase
								{
									OFFSET 0.000000 0.000000 0.000000
									CHANNELS 3 Zrotation Yrotation Xrotation
									JOINT LeftHandIndex1
									{
										OFFSET 0.715260 -0.000000 -0.000000
										CHANNELS 3 Zrotation Yrotation Xrotation
										End Site
										{
											OFFSET 0.000000 0.000000 0.000000
										}
									}
								}
								JOINT LThumb
								{
									OFFSET 0.000000 0.000000 0.000000
									CHANNELS 3 Zrotation Yrotation Xrotation
									End Site
									{
										OFFSET 0.000000 0.000000 0.000000
									}
								}
							}
						}
					}
				}
				JOINT RightShoulder
				{
					OFFSET 0.000000 0.000000 0.000000
					CHANNELS 3 Zrotation Yrotation Xrotation
					JOINT RightArm
					{
						OFFSET -3.136600 1.374050 -0.404650
						CHANNELS 3 Zrotation Yrotation Xrotation
						JOINT RightForeArm
						{
							OFFSET -5.241900 -0.000000 -0.000000
							CHANNELS 3 Zrotation Yrotation Xrotation
							JOINT RightHand
							{
								OFFSET -3.444170 -0.000000 -0.000000
								CHANNELS 3 Zrotation Yrotation Xrotation
								JOINT RightFingerBase
								{
									OFFSET 0.000000 0.000000 0.000000
									CHANNELS 3 Zrotation Yrotation Xrotation
									JOINT RightHandIndex1
									{
										OFFSET -0.622530 -0.000000 -0.000000
										CHANNELS 3 Zrotation Yrotation Xrotation
										End Site
										{
											OFFSET 0.000000 0.000000 0.000000
										}
									}
								}
								JOINT RThumb
								{
									OFFSET 0.000000 0.000000 0.000000
									CHANNELS 3 Zrotation Yrotation Xrotation
									End Site
									{
										OFFSET 0.000000 0.000000 0.000000
									}
								}
							}
						}
					}
				}
			}
		}
	}
}
}
MOTION
Frames: 14
Frame Time: 0.008333
0.871563 17.039291 1.494146 3.710332 26.165032 19.276363 5.481481 -3.174892 8.014647 0.190837 -3.088210 -0.950809 -7.180732 -3.100478 1.583168 9.371948 -0.292446 4.106231 -5.049729 -0.411313 2.732548 0.000000 0.000000 0.000000 -4.601461 -6.818237 1.987731 -51.187072 -25.257590 17.929873 -3.216208 -40.625672 -0.002623 4.436915 -2.727650 -0.115045 -0.164441 0.167586 0.000000 0.000000 0.000000 0.000000 0.000000 0.000000 0.000000 20.510458 -5.438310 -0.524726 64.993412 3.933833 -8.367890 3.256013 20.535134 0.007333 2.596330 6.487388 0.145052 0.051150 -0.027783 -0.000000 0.000000 0.000000 0.000000 0.000000 0.000000 0.000000 
0.908110 17.015466 1.613466 3.863816 26.237970 19.307146 5.656891 -3.220248 7.905511 0.237466 -3.143671 -0.991690 -7.148000 -3.159594 1.563950 9.427487 -0.466257 4.002928 -5.059836 -0.411805 2.711791 0.000000 0.000000 0.000000 -4.869773 -6.717206 1.927994 -52.343555 -24.613547 18.813839 -3.211402 -40.988089 -0.001727 4.150625 -2.738802 -0.108126 -0.161954 0.166010 0.000000 0.000000 0.000000 0.000000 0.000000 0.000000 0.000000 20.605337 -5.631731 -0.524556 64.915057 3.604231 -8.763317 3.290360 20.167811 0.007441 2.560020 6.475492 0.142648 0.052845 -0.026677 -0.000000 0.000000 0.000000 0.000000 0.000000 0.000000 0.000000 
0.946303 16.994453 1.733788 3.964671 26.265811 19.362716 5.882837 -3.248348 7.763872 0.293426 -3.184772 -1.036720 -7.118884 -3.204473 1.556074 9.463234 -0.633240 3.889552 -5.070040 -0.412217 2.688154 0.000000 0.000000 0.000000 -5.230089 -6.556909 1.874975 -53.424262 -24.000534 19.663930 -3.207162 -41.312365 -0.000806 3.841055 -2.748234 -0.100411 -0.159248 0.164551 0.000000 0.000000 0.000000 0.000000 0.000000 0.000000 0.000000 20.684323 -5.809532 -0.527007 64.808330 3.331356 -9.162189 3.327450 19.764457 0.007602 2.493826 6.482859 0.138847 0.054860 -0.025808 -0.000000 0.000000 0.000000 0.000000 0.000000 0.000000 0.000000 
0.986774 16.977103 1.854018 3.986275 26.236823 19.420929 6.179330 -3.254299 7.604149 0.363103 -3.206060 -1.087131 -7.090907 -3.230397 1.544421 9.477496 -0.754536 3.785766 -5.078040 -0.412515 2.666935 0.000000 0.000000 0.000000 -5.661944 -6.381526 1.827313 -54.464542 -23.359527 20.423242 -3.200521 -41.601802 0.000135 3.512792 -2.768119 -0.092599 -0.156036 0.163339 0.000000 0.000000 0.000000 0.000000 0.000000 0.000000 0.000000 20.730606 -5.931598 -0.526660 64.673880 3.074865 -9.581745 3.366295 19.343701 0.007817 2.396793 6.509817 0.133744 0.057141 -0.025250 -0.000000 0.000000 0.000000 0.000000 0.000000 0.000000 0.000000 
1.028630 16.963962 1.973670 3.949902 26.137339 19.485946 6.518875 -3.241506 7.439484 0.440878 -3.209601 -1.137072 -7.063491 -3.238748 1.538453 9.470618 -0.838211 3.682654 -5.082653 -0.412540 2.645170 0.000000 0.000000 0.000000 -6.159194 -6.149617 1.784036 -55.453317 -22.748245 21.110737 -3.193907 -41.831374 0.001059 3.183386 -2.796304 -0.084889 -0.152666 0.162328 0.000000 0.000000 0.000000 0.000000 0.000000 0.000000 0.000000 20.744229 -6.003875 -0.525869 64.526235 2.880630 -10.032589 3.407194 18.867556 0.008080 2.274932 6.547902 0.127345 0.059698 -0.024966 -0.000000 0.000000 0.000000 0.000000 0.000000 0.000000 0.000000 
1.072080 16.955502 2.092069 3.837925 25.964541 19.537855 6.911933 -3.208806 7.284626 0.529338 -3.193510 -1.185869 -7.033944 -3.228032 1.529109 9.443478 -0.863798 3.592570 -5.081797 -0.412225 2.626147 0.000000 0.000000 0.000000 -6.696364 -5.889539 1.741962 -56.422598 -22.130638 21.686713 -3.184843 -41.997864 0.001941 2.863599 -2.838034 -0.077584 -0.148977 0.161573 0.000000 0.000000 0.000000 0.000000 0.000000 0.000000 0.000000 20.712952 -6.006391 -0.521502 64.369431 2.729074 -10.510735 3.449418 18.344230 0.008384 2.128105 6.593817 0.119645 0.062492 -0.024953 -0.000000 0.000000 0.000000 0.000000 0.000000 0.000000 0.000000 
1.116439 16.951839 2.208793 3.656087 25.719070 19.566441 7.345038 -3.158890 7.154613 0.626052 -3.159208 -1.231067 -6.999999 -3.199671 1.512533 9.401030 -0.826997 3.520930 -5.074034 -0.411515 2.611203 0.000000 0.000000 0.000000 -7.242456 -5.619125 1.697589 -57.392674 -21.486109 22.121129 -3.171377 -42.098949 0.002740 2.563931 -2.892243 -0.070884 -0.144867 0.161042 0.000000 0.000000 0.000000 0.000000 0.000000 0.000000 0.000000 20.633754 -5.936873 -0.512060 64.213466 2.624135 -11.008249 3.492216 17.766782 0.008716 1.959966 6.640810 0.110547 0.065475 -0.025164 -0.000000 0.000000 0.000000 0.000000 0.000000 0.000000 0.000000 
1.160142 16.952869 2.323645 3.434832 25.402159 19.569853 7.778890 -3.098904 7.069190 0.723021 -3.111493 -1.266204 -6.961513 -3.157795 1.495257 9.354626 -0.732316 3.462085 -5.058114 -0.410286 2.598355 0.000000 0.000000 0.000000 -7.770513 -5.307158 1.649930 -58.364132 -20.864608 22.437325 -3.156428 -42.109559 0.003435 2.298739 -2.955631 -0.065090 -0.140681 0.160635 0.000000 0.000000 0.000000 0.000000 0.000000 0.000000 0.000000 20.516231 -5.799054 -0.500331 64.077765 2.587783 -11.548090 3.534514 17.123724 0.009042 1.788673 6.673175 0.100846 0.068505 -0.025505 0.000000 0.000000 0.000000 0.000000 0.000000 0.000000 0.000000 
1.202065 16.958290 2.436557 3.189345 25.023806 19.543752 8.191881 -3.034023 7.037884 0.816052 -3.054166 -1.289301 -6.918020 -3.106067 1.476263 9.315931 -0.575150 3.418923 -5.032994 -0.408508 2.588360 0.000000 0.000000 0.000000 -8.251430 -4.956541 1.598074 -59.347296 -20.269405 22.633302 -3.140456 -42.021963 0.003997 2.075929 -3.023186 -0.060200 -0.136507 0.160263 0.000000 0.000000 0.000000 0.000000 0.000000 0.000000 0.000000 20.366913 -5.589564 -0.487048 63.974869 2.611305 -12.145259 3.575150 16.427012 0.009326 1.630186 6.676003 0.091446 0.071434 -0.025883 0.000000 0.000000 0.000000 0.000000 0.000000 0.000000 0.000000 
1.242075 16.967676 2.547454 2.910759 24.605899 19.474382 8.589224 -2.965766 7.063923 0.906695 -2.988424 -1.302974 -6.866781 -3.046232 1.442669 9.292137 -0.371548 3.403191 -4.999533 -0.406369 2.584909 0.000000 0.000000 0.000000 -8.642801 -4.658667 1.536303 -60.374307 -19.590036 22.622193 -3.115086 -41.877883 0.004381 1.890142 -3.088500 -0.056020 -0.131609 0.159835 0.000000 0.000000 0.000000 0.000000 0.000000 0.000000 0.000000 20.188768 -5.334736 -0.466941 63.895880 2.690116 -12.707989 3.613016 15.686846 0.009567 1.464953 6.654078 0.081345 0.074313 -0.026217 0.000000 0.000000 0.000000 0.000000 0.000000 0.000000 0.000000 
1.278127 16.980383 2.656709 2.647365 24.158916 19.381363 8.920798 -2.903924 7.146386 0.984389 -2.922879 -1.302446 -6.811861 -2.985802 1.411958 9.301272 -0.116185 3.400149 -4.956454 -0.403697 2.583649 0.000000 0.000000 0.000000 -8.946858 -4.313986 1.471417 -61.408567 -18.967317 22.519241 -3.091436 -41.628093 0.004611 1.753513 -3.143509 -0.052943 -0.127047 0.159214 0.000000 0.000000 0.000000 0.000000 0.000000 0.000000 0.000000 20.002734 -5.021658 -0.449360 63.868311 2.819530 -13.341820 3.647222 14.926579 0.009697 1.342057 6.575835 0.073144 0.076819 -0.026369 -0.000000 0.000000 0.000000 0.000000 0.000000 0.000000 0.000000 
1.310518 16.995772 2.764297 2.382213 23.711275 19.250091 9.204828 -2.847442 7.281948 1.053149 -2.857149 -1.292616 -6.750499 -2.925129 1.367943 9.346793 0.151616 3.421033 -4.906569 -0.400821 2.588377 0.000000 0.000000 0.000000 -9.125187 -4.057328 1.396836 -62.478096 -18.241569 22.201429 -3.057125 -41.347129 0.004645 1.648068 -3.178044 -0.050276 -0.121693 0.158267 0.000000 0.000000 0.000000 0.000000 0.000000 0.000000 0.000000 19.814343 -4.704160 -0.425960 63.869981 3.011311 -13.891188 3.676913 14.152128 0.009735 1.221172 6.458131 0.064841 0.079126 -0.026280 -0.000000 0.000000 0.000000 0.000000 0.000000 0.000000 0.000000 
1.338142 17.013034 2.870781 2.151776 23.278242 19.105082 9.410856 -2.802787 7.454241 1.106340 -2.798598 -1.272849 -6.686865 -2.870778 1.325803 9.441441 0.438068 3.453214 -4.849215 -0.397631 2.595594 0.000000 0.000000 0.000000 -9.196973 -3.800694 1.320317 -63.540648 -17.534329 21.786195 -3.022729 -41.000954 0.004530 1.578616 -3.185285 -0.048313 -0.116542 0.156918 0.000000 0.000000 0.000000 0.000000 0.000000 0.000000 0.000000 19.639849 -4.368399 -0.405602 63.918672 3.242490 -14.443895 3.701570 13.403490 0.009639 1.141538 6.280662 0.058636 0.080972 -0.025856 -0.000000 0.000000 0.000000 0.000000 0.000000 0.000000 0.000000 
1.361053 17.031440 2.976406 1.958884 22.881156 18.950612 9.544375 -2.770336 7.650173 1.144896 -2.749200 -1.246294 -6.621568 -2.824805 1.284144 9.587943 0.722436 3.495290 -4.785983 -0.394255 2.605285 0.000000 0.000000 0.000000 -9.164128 -3.574404 1.242706 -64.584670 -16.818396 21.270148 -2.986846 -40.618222 0.004284 1.534186 -3.157796 -0.046453 -0.111462 0.155098 0.000000 0.000000 0.000000 0.000000 0.000000 0.000000 0.000000 19.486553 -4.038324 -0.387573 64.006538 3.509096 -14.948054 3.720849 12.704310 0.009416 1.094564 6.051453 0.053928 0.082366 -0.025070 -0.000000 0.000000 0.000000 0.000000 0.000000 0.000000 0.000000 
